<svg xmlns="http://www.w3.org/2000/svg" xmlns:xlink="http://www.w3.org/1999/xlink" width="26px" height="22px">
    <path fill-rule="evenodd"  fill="rgb(255, 88, 22)" d="M25.231,8.358 L22.636,15.993 C22.636,15.993 22.424,17.127 21.327,17.127 L8.234,17.127 C6.929,17.127 6.873,15.703 6.873,15.703 L5.232,3.501 L1.017,2.436 C0.383,2.276 -0.000,1.636 0.162,1.008 C0.324,0.379 0.969,0.000 1.603,0.160 L6.600,1.423 C7.071,1.542 7.421,1.935 7.483,2.413 L8.233,8.460 L9.019,14.667 L20.864,14.667 L21.480,12.610 L11.551,12.606 C11.009,12.606 10.569,12.171 10.569,11.634 C10.569,11.097 11.009,10.662 11.551,10.662 L22.062,10.660 L22.717,8.461 L12.379,8.462 C11.795,8.462 11.321,7.992 11.321,7.413 C11.321,6.834 11.795,6.365 12.379,6.365 L24.064,6.366 C26.000,6.366 25.231,8.358 25.231,8.358 ZM9.559,17.821 C10.724,17.821 11.668,18.756 11.668,19.910 C11.668,21.064 10.724,22.000 9.559,22.000 C8.394,22.000 7.449,21.064 7.449,19.910 C7.449,18.756 8.394,17.821 9.559,17.821 ZM18.765,17.821 C19.930,17.821 20.875,18.756 20.875,19.910 C20.875,21.064 19.930,22.000 18.765,22.000 C17.600,22.000 16.655,21.064 16.655,19.910 C16.655,18.756 17.600,17.821 18.765,17.821 Z"/>
</svg>