<svg xmlns="http://www.w3.org/2000/svg" xmlns:xlink="http://www.w3.org/1999/xlink" width="15px" height="20px">
	<path fill-rule="evenodd" fill="rgb(73, 156, 84)" d="M0.117,10.698 C0.000,9.643 0.097,8.625 0.362,7.685 C1.242,4.558 4.001,2.259 7.274,2.218 L7.274,0.174 C7.274,0.061 7.411,0.000 7.500,0.069 L11.536,3.159 C11.602,3.212 11.602,3.317 11.536,3.366 L7.504,6.456 C7.411,6.525 7.278,6.464 7.278,6.350 L7.278,4.311 C5.126,4.347 3.289,5.730 2.499,7.685 C2.199,8.423 2.047,9.238 2.090,10.093 C2.148,11.269 2.573,12.352 3.242,13.228 C3.600,13.694 3.515,14.375 3.051,14.728 C2.612,15.065 1.997,14.972 1.658,14.526 C0.829,13.447 0.276,12.133 0.117,10.698 ZM11.770,6.772 C12.443,7.644 12.867,8.731 12.922,9.907 C12.964,10.767 12.809,11.582 12.513,12.315 C11.723,14.270 9.886,15.657 7.734,15.689 L7.734,13.650 C7.734,13.536 7.597,13.475 7.508,13.544 L3.472,16.634 C3.406,16.687 3.406,16.793 3.472,16.841 L7.504,19.931 C7.597,20.000 7.730,19.939 7.730,19.826 L7.730,17.782 C11.003,17.745 13.766,15.446 14.642,12.315 C14.907,11.375 15.000,10.357 14.887,9.303 C14.731,7.867 14.179,6.553 13.350,5.475 C13.007,5.029 12.396,4.935 11.956,5.272 C11.497,5.625 11.412,6.306 11.770,6.772 Z" />
</svg>
