<svg xmlns="http://www.w3.org/2000/svg" xmlns:xlink="http://www.w3.org/1999/xlink" width="15px" height="13px">
	<path fill-rule="evenodd" fill="rgb(198, 81, 122)" d="M12.809,0.529 C12.202,0.193 11.505,-0.000 10.763,-0.000 C9.451,-0.000 8.277,0.600 7.501,1.542 C6.722,0.600 5.549,-0.000 4.236,-0.000 C3.495,-0.000 2.799,0.193 2.191,0.529 C0.885,1.256 0.000,2.654 0.000,4.260 C0.000,4.719 0.075,5.160 0.209,5.573 C0.936,8.858 7.501,13.000 7.501,13.000 C7.501,13.000 14.062,8.858 14.790,5.573 C14.925,5.160 15.000,4.719 15.000,4.260 C15.000,2.654 14.115,1.257 12.809,0.529 Z" />
</svg>
