<svg xmlns="http://www.w3.org/2000/svg" xmlns:xlink="http://www.w3.org/1999/xlink" width="25px" height="25px">
	<path fill-rule="evenodd" fill="rgb(68, 86, 103)" d="M21.339,21.339 C19.076,23.601 15.951,25.000 12.500,25.000 C9.048,25.000 5.923,23.601 3.661,21.339 C1.400,19.077 -0.000,15.952 -0.000,12.500 C-0.000,9.048 1.399,5.923 3.661,3.661 C5.922,1.400 9.047,-0.000 12.500,-0.000 C15.951,-0.000 19.076,1.399 21.339,3.662 C23.600,5.923 25.000,9.048 25.000,12.500 C25.000,15.952 23.601,19.077 21.339,21.339 ZM20.786,4.213 C18.665,2.093 15.735,0.781 12.500,0.781 C9.264,0.781 6.334,2.093 4.214,4.213 C2.093,6.334 0.781,9.264 0.781,12.500 C0.781,15.735 2.093,18.666 4.213,20.786 C6.333,22.906 9.264,24.218 12.499,24.218 C15.735,24.218 18.664,22.906 20.785,20.786 C22.906,18.666 24.218,15.736 24.218,12.500 C24.218,9.264 22.906,6.334 20.786,4.213 ZM16.159,13.033 C15.523,13.670 14.643,14.064 13.672,14.064 C13.672,14.064 13.672,14.063 13.672,14.063 C13.671,14.063 13.671,14.064 13.671,14.064 L10.937,14.064 L10.937,14.845 L14.454,14.845 C14.669,14.845 14.844,15.020 14.844,15.236 C14.844,15.451 14.669,15.626 14.454,15.626 L10.937,15.626 L10.937,17.969 L12.110,17.969 C12.325,17.969 12.500,18.144 12.500,18.360 C12.500,18.576 12.325,18.751 12.110,18.751 L8.985,18.751 C8.769,18.751 8.594,18.576 8.594,18.360 C8.594,18.144 8.769,17.969 8.985,17.969 L10.156,17.969 L10.156,15.626 L8.984,15.626 C8.768,15.626 8.593,15.451 8.593,15.236 C8.593,15.020 8.768,14.845 8.984,14.845 L10.156,14.845 L10.156,14.064 L8.984,14.064 C8.768,14.064 8.593,13.889 8.593,13.673 C8.593,13.457 8.768,13.282 8.984,13.282 L10.156,13.282 L10.156,7.813 L8.985,7.813 C8.769,7.813 8.594,7.638 8.594,7.422 C8.594,7.206 8.769,7.031 8.985,7.031 L13.672,7.031 C14.629,7.031 15.498,7.416 16.133,8.039 L16.159,8.062 C16.794,8.697 17.189,9.577 17.189,10.548 C17.189,11.504 16.805,12.373 16.182,13.008 L16.159,13.033 ZM15.606,8.615 L15.586,8.593 C15.093,8.111 14.418,7.813 13.672,7.813 L10.937,7.813 L10.937,13.282 L13.671,13.282 C13.671,13.282 13.671,13.283 13.672,13.283 C13.672,13.283 13.672,13.282 13.672,13.282 C14.427,13.282 15.111,12.977 15.606,12.482 L15.628,12.461 C16.109,11.970 16.408,11.294 16.408,10.549 C16.408,9.794 16.101,9.109 15.606,8.615 Z" />
</svg>
